<?xml version="1.0" standalone="no"?>
<!DOCTYPE svg PUBLIC "-//W3C//DTD SVG 1.1//EN" "http://www.w3.org/Graphics/SVG/1.1/DTD/svg11.dtd" >
<svg xmlns="http://www.w3.org/2000/svg">
<metadata>
Created by FontPrep 20130207 at Mon Jul 20 20:58:20 2015
 By Predrag Jevtic
Copyright (c) 1988, 1990, 1993 Adobe Systems Incorporated.  All Rights Reserved.Helvetica is a trademark of Linotype-Hell AG and/or its subsidiaries.
</metadata>
<defs>
<font id="d7af0fd9278f330eed98b60dddea7bd6" horiz-adv-x='1024' >
  <font-face 
    font-family="HelveticaNeue-Medium"
    font-weight="500"
    font-stretch="normal"
    units-per-em="2048"
    panose-1="2 11 6 0 0 0 0 0 0 0"
    ascent="1595"
    descent="-453"
    x-height="1059"
    cap-height="1462"
    bbox="-338 -453 2183.01 1950"
    underline-thickness="102"
    underline-position="-102"
    unicode-range="U+0020-FB02"
  />
<missing-glyph horiz-adv-x="569" 
 />
    <glyph glyph-name=".notdef" horiz-adv-x="569" 
 />
    <glyph glyph-name=".null" horiz-adv-x="0" 
 />
    <glyph glyph-name="nonmarkingreturn" horiz-adv-x="681" 
 />
    <glyph glyph-name="space" unicode=" " horiz-adv-x="569" 
 />
    <glyph glyph-name="space" unicode="&#xa0;" horiz-adv-x="569" 
 />
    <glyph glyph-name="exclam" unicode="!" horiz-adv-x="569" 
d="M147 0v256h275v-256h-275zM158 1462h256v-422l-68 -632h-121l-67 632v422z" />
    <glyph glyph-name="quotedbl" unicode="&#x22;" horiz-adv-x="909" 
d="M530 885v577h209v-577h-209zM170 885v577h209v-577h-209z" />
    <glyph glyph-name="numbersign" unicode="#" 
d="M713 850h-228l-36 -266h227zM1014 584v-154h-195l-61 -430h-164l59 430h-225l-61 -430h-164l59 430h-192v154h215l37 266h-193v154h213l59 430h166l-61 -430h227l60 430h165l-61 -430h176v-154h-196l-37 -266h174z" />
    <glyph glyph-name="dollar" unicode="$" 
d="M530 1313q-231 0 -231 -201q1 -90 63 -136t168 -73v410zM530 1657h88v-160q195 0 322 -102t127 -297h-233q-10 215 -216 215v-432q286 -76 386 -184q100 -107 100 -271q0 -219 -134 -335t-352 -126v-160h-88v160q-227 4 -362 130t-133 349h233q-4 -287 262 -294v495
q-80 23 -136 42t-123 56q-208 115 -205 353q0 186 136 294t328 107v160zM870 393q0 104 -66 154q-67 49 -186 80v-477q252 18 252 243z" />
    <glyph glyph-name="percent" unicode="%" horiz-adv-x="2048" 
d="M352 1055q0 -274 156 -275q82 0 121 76t39 199q0 274 -158 274t-158 -274zM510 647q-176 0 -259 113t-83 293t86 295q86 114 256 114t256 -114t86 -295q0 -180 -83 -293t-259 -113zM1380 379q0 -274 156 -275q82 0 121 76t39 199q0 274 -158 274t-158 -274zM1538 -29
q-176 0 -259 113t-83 293t86 295q86 114 256 114t256 -114t86 -295q0 -180 -83 -293t-259 -113zM532 -49l797 1532h156l-793 -1532h-160z" />
    <glyph glyph-name="ampersand" unicode="&#x26;" horiz-adv-x="1327" 
d="M526 -29q-204 0 -332 116t-128 319q0 252 335 423q-47 61 -73 101q-74 110 -74 219q0 156 103 252t255 96t258 -92t107 -258q0 -229 -264 -371l227 -274q33 92 45 196h205q-25 -217 -115 -358l281 -340h-287l-133 164q-158 -193 -410 -193zM299 394q0 -108 66 -174
t170 -64q62 0 108 17q45 17 62 31q18 15 28 22q11 6 25 24t31 38t22 31l-287 357q-8 -6 -54 -31t-64 -40t-50 -46q-58 -57 -57 -165zM619 1323q-67 0 -111 -45t-45 -122q0 -77 91 -185q32 -39 42 -53q55 38 86 64q86 74 86 182q0 64 -41 112q-41 47 -108 47z" />
    <glyph glyph-name="quotesingle" unicode="'" horiz-adv-x="569" 
d="M180 885v577h209v-577h-209z" />
    <glyph glyph-name="parenleft" unicode="(" horiz-adv-x="569" 
d="M100 553q0 489 295 944h191q-252 -451 -252 -957t252 -931h-191q-139 221 -217 446t-78 498z" />
    <glyph glyph-name="parenright" unicode=")" horiz-adv-x="569" 
d="M469 551q0 -492 -295 -942h-190q252 446 252 953t-252 935h190q139 -223 217 -449t78 -497z" />
    <glyph glyph-name="asterisk" unicode="*" horiz-adv-x="757" 
d="M309 1462h140v-245l223 88l49 -134l-234 -77l144 -193l-109 -80l-145 201l-139 -201l-115 80l143 193l-227 77l45 134l225 -88v245z" />
    <glyph glyph-name="plus" unicode="+" horiz-adv-x="1228" 
d="M510 623v413h209v-413h411v-209h-411v-414h-209v414h-412v209h412z" />
    <glyph glyph-name="comma" unicode="," horiz-adv-x="569" 
d="M141 0v276h285v-276q-2 -125 -78 -212t-198 -112v125q66 17 100 73t33 126h-142z" />
    <glyph glyph-name="hyphen" unicode="-" horiz-adv-x="796" 
d="M100 446v222h596v-222h-596z" />
    <glyph glyph-name="hyphen" unicode="&#xad;" horiz-adv-x="796" 
d="M100 446v222h596v-222h-596z" />
    <glyph glyph-name="period" unicode="." horiz-adv-x="569" 
d="M141 0v276h285v-276h-285z" />
    <glyph glyph-name="slash" unicode="/" horiz-adv-x="720" 
d="M-45 -35l588 1532h223l-588 -1532h-223z" />
    <glyph glyph-name="zero" unicode="0" 
d="M569 1462q147 0 250 -68q242 -164 246 -677q0 -281 -92 -492q-51 -117 -153 -185t-250 -69q-389 0 -476 490q-20 119 -20 256q0 286 92 491q51 117 153 186q103 68 250 68zM569 166q262 0 262 551t-262 551t-262 -551t262 -551z" />
    <glyph glyph-name="one" unicode="1" 
d="M109 1012v184q161 -2 277 57t140 181h191v-1434h-256v1012h-352z" />
    <glyph glyph-name="two" unicode="2" 
d="M1059 209v-209h-979q2 334 315 543q33 25 113 78q247 163 294 274q24 55 26 136t-53 159q-54 78 -189 78q-236 0 -246 -359h-234q0 246 130 400t364 153q125 0 219 -42q162 -72 218 -250q24 -73 24 -148q0 -156 -85 -268t-235 -215q-29 -21 -119 -79t-124 -85
q-35 -27 -79 -74t-59 -92h699z" />
    <glyph glyph-name="three" unicode="3" 
d="M784 1065q0 90 -62 146q-62 57 -169 57t-170 -87t-59 -206h-234q10 215 137 351t323 136t332 -101t136 -282q0 -236 -203 -307v-4q121 -25 191 -122t69 -236q0 -197 -147 -318t-375 -121q-229 0 -357 134t-133 366h234q-4 -135 67 -220q72 -85 198 -85t203 68t77 188
q0 180 -164 225q-84 23 -211 19v174q133 -6 225 48t92 177z" />
    <glyph glyph-name="four" unicode="4" 
d="M664 524v631h-5l-430 -631h435zM1069 524v-184h-184v-340h-221v340h-615v231l615 863h221v-910h184z" />
    <glyph glyph-name="five" unicode="5" 
d="M993 1434v-209h-567l-74 -365l4 -4q98 109 265 109q209 -1 329 -135t119 -333q0 -199 -115 -355q-57 -77 -155 -124t-226 -47q-215 0 -354 114t-147 323h233q10 -114 80 -178q71 -64 197 -64t190 86t64 221t-70 221t-203 86q-182 0 -231 -131h-234l154 785h741z" />
    <glyph glyph-name="six" unicode="6" 
d="M616 942q209 0 331 -135t122 -346t-132 -350t-359 -139t-346 137q-120 138 -149 372q-13 105 -13 241q0 278 116 497q59 111 169 177q109 66 269 66t285 -110t133 -281h-233q-7 88 -63 142q-56 55 -132 55q-137 1 -201 -89t-84 -198q-20 -107 -26 -205l4 -4
q47 82 129 126t180 44zM583 166q121 0 187 88t66 211t-66 208t-188 85t-189 -84t-67 -209t68 -212t189 -87z" />
    <glyph glyph-name="seven" unicode="7" 
d="M72 1225v209h981v-195q-238 -268 -373 -567t-162 -672h-256q23 326 172 644q150 318 381 581h-743z" />
    <glyph glyph-name="eight" unicode="8" 
d="M569 1278q-98 0 -161 -58q-64 -58 -64 -158t62 -158q62 -56 163 -56q100 0 163 56q62 56 62 156t-63 160q-64 58 -162 58zM569 -29q-223 0 -364 122t-142 329q0 133 71 226t192 124v4q-203 78 -203 295q0 183 117 287q118 104 330 104t329 -103t117 -288
q0 -217 -203 -295v-4q121 -31 192 -124t70 -226q1 -207 -141 -329t-365 -122zM569 156q119 0 196 72t77 191t-77 187t-196 68t-195 -68t-77 -188q1 -120 77 -190q76 -72 195 -72z" />
    <glyph glyph-name="nine" unicode="9" 
d="M524 166q140 0 202 88t81 187t29 216l-5 5q-45 -82 -127 -127t-182 -46q-204 1 -328 133t-124 349t132 354t361 137q431 0 493 -510q13 -106 13 -241t-29 -260t-88 -236t-169 -177q-109 -66 -269 -67t-285 109t-133 282h234q8 -88 63 -142t131 -54zM556 674q122 0 190 87
t67 212q1 125 -67 210t-191 85t-187 -84t-65 -210q0 -126 65 -213q66 -87 188 -87z" />
    <glyph glyph-name="colon" unicode=":" horiz-adv-x="569" 
d="M141 0v276h285v-276h-285zM141 760v276h285v-276h-285z" />
    <glyph glyph-name="semicolon" unicode=";" horiz-adv-x="569" 
d="M141 760v276h285v-276h-285zM141 0v276h285v-276q-2 -125 -78 -212t-198 -112v125q66 17 100 73t33 126h-142z" />
    <glyph glyph-name="less" unicode="&#x3c;" horiz-adv-x="1228" 
d="M1135 193v-209l-1041 460v148l1041 461v-209l-766 -326z" />
    <glyph glyph-name="equal" unicode="=" horiz-adv-x="1228" 
d="M1130 416v-209h-1032v209h1032zM1130 829v-208h-1032v208h1032z" />
    <glyph glyph-name="greater" unicode="&#x3e;" horiz-adv-x="1228" 
d="M94 193l766 325l-766 326v209l1041 -461v-148l-1041 -460v209z" />
    <glyph glyph-name="question" unicode="?" 
d="M426 0v256h274v-256h-274zM334 997h-234q-2 227 132 363t344 137q210 0 336 -111t126 -303q0 -138 -58 -216q-32 -41 -54 -63t-78 -70q-58 -48 -88 -79t-56 -99t-26 -159h-221q0 170 38 259t153 185q101 80 118 134q16 54 16 100q0 113 -65 170q-66 57 -135 58
q-123 0 -186 -81q-62 -82 -62 -225z" />
    <glyph glyph-name="at" unicode="@" horiz-adv-x="1638" 
d="M1133 430q98 0 182 131t84 311q0 224 -158 358q-159 134 -403 134t-409 -177t-165 -455t171 -456t435 -178q133 0 255 54t206 149h144q-97 -158 -261 -247t-352 -89q-322 0 -542 223t-220 570q0 307 222 523t517 216t497 -171t202 -429q0 -145 -51 -267t-129 -194
q-161 -149 -303 -149q-51 1 -85 31t-36 88h-4q-104 -117 -230 -117t-213 94q-86 94 -86 227q0 205 128 368t321 163q158 0 229 -148l37 117h144l-148 -539q-45 -141 21 -141zM739 442q115 0 198 121t83 244q0 72 -48 126t-114 54q-119 0 -201 -116t-82 -242q0 -83 45 -135
t119 -52z" />
    <glyph glyph-name="A" unicode="A" horiz-adv-x="1366" 
d="M-14 0l561 1462h272l563 -1462h-274l-137 387h-584l-137 -387h-264zM678 1210l-221 -628h446l-219 628h-6z" />
    <glyph glyph-name="B" unicode="B" horiz-adv-x="1441" 
d="M412 1253v-403h417q94 0 155 53q60 53 60 155t-53 148q-53 47 -162 47h-417zM156 0v1462h710q203 0 319 -92t115 -270q0 -221 -208 -312v-4q134 -29 204 -128t70 -248q0 -182 -134 -295t-405 -113h-671zM412 666v-457h452q117 0 182 60q64 61 64 169t-64 168
q-65 59 -182 60h-452z" />
    <glyph glyph-name="C" unicode="C" horiz-adv-x="1478" 
d="M778 1288q-219 0 -332 -163q-112 -163 -112 -394t112 -394t332 -163q164 0 260 108t113 275h250q-15 -264 -187 -428t-436 -164q-319 0 -510 221q-190 221 -190 545t190 545t510 221q254 -1 426 -135t195 -365h-256q-74 291 -365 291z" />
    <glyph glyph-name="D" unicode="D" horiz-adv-x="1478" 
d="M156 0v1462h606q322 0 484 -204t161 -528q0 -324 -162 -526q-162 -204 -483 -204h-606zM412 1253v-1044h252q288 0 395 152q51 75 71 163t21 207q0 235 -92 370q-103 152 -395 152h-252z" />
    <glyph glyph-name="E" unicode="E" horiz-adv-x="1290" 
d="M156 0v1462h1052v-221h-796v-383h737v-209h-737v-428h811v-221h-1067z" />
    <glyph glyph-name="F" unicode="F" horiz-adv-x="1214" 
d="M156 0v1462h1009v-221h-753v-383h661v-209h-661v-649h-256z" />
    <glyph glyph-name="G" unicode="G" horiz-adv-x="1554" 
d="M1432 770v-770h-164l-39 172q-99 -115 -201 -161t-240 -46q-319 0 -509 221t-191 545q0 324 190 545t510 221q250 0 424 -130t203 -370h-250q-19 139 -125 215t-252 76q-220 0 -332 -163t-112 -394t113 -394t331 -163q193 -2 299 106t111 295h-389v195h623z" />
    <glyph glyph-name="H" unicode="H" horiz-adv-x="1478" 
d="M150 0v1462h256v-581h665v581h256v-1462h-256v659h-665v-659h-256z" />
    <glyph glyph-name="I" unicode="I" horiz-adv-x="569" 
d="M156 0v1462h256v-1462h-256z" />
    <glyph glyph-name="J" unicode="J" horiz-adv-x="1099" 
d="M944 1462v-991q0 -86 -9 -152q-9 -65 -40 -135t-81 -114t-140 -75q-90 -30 -211 -30q-221 0 -329 128t-107 341v78h256v-76q0 -130 45 -196q46 -66 160 -66t157 68t43 215v1005h256z" />
    <glyph glyph-name="K" unicode="K" horiz-adv-x="1402" 
d="M156 0v1462h256v-665l651 665h315l-583 -583l624 -879h-319l-479 698l-209 -206v-492h-256z" />
    <glyph glyph-name="L" unicode="L" horiz-adv-x="1175" 
d="M156 0v1462h256v-1241h743v-221h-999z" />
    <glyph glyph-name="M" unicode="M" horiz-adv-x="1820" 
d="M152 0v1462h360l403 -1145h5l393 1145h356v-1462h-244v1128h-4l-405 -1128h-211l-406 1128h-4v-1128h-243z" />
    <glyph glyph-name="N" unicode="N" horiz-adv-x="1478" 
d="M145 0v1462h271l667 -1077h4v1077h244v-1462h-270l-666 1075h-6v-1075h-244z" />
    <glyph glyph-name="O" unicode="O" horiz-adv-x="1556" 
d="M778 1288q-219 0 -332 -163q-112 -163 -112 -394t112 -394t332 -163q219 0 332 163t113 394t-113 394t-332 163zM778 1497q320 0 510 -221t190 -545t-190 -545t-510 -221t-510 221t-190 545t190 545q191 221 510 221z" />
    <glyph glyph-name="P" unicode="P" horiz-adv-x="1366" 
d="M156 0v1462h645q147 0 251 -43t155 -117q91 -134 91 -295q0 -162 -91 -288q-50 -72 -154 -115t-252 -43h-389v-561h-256zM412 1253v-483h374q102 0 180 57q77 57 76 185q0 242 -251 241h-379z" />
    <glyph glyph-name="Q" unicode="Q" horiz-adv-x="1556" 
d="M778 -35q-319 0 -510 221q-190 221 -190 545t190 545t510 221t510 -221t191 -545q1 -163 -51 -313t-156 -248l188 -164l-125 -139l-213 186q-156 -88 -344 -88zM1223 719q0 243 -113 406t-332 163t-332 -163q-112 -163 -112 -394t112 -394t332 -163q92 0 164 35l-147 129
l123 141l178 -155q127 152 127 395z" />
    <glyph glyph-name="R" unicode="R" horiz-adv-x="1441" 
d="M156 0v1462h698q238 0 360 -103t123 -292q0 -285 -241 -369v-4q86 -12 152 -83t65 -226q0 -299 80 -385h-275q-39 62 -39 244t-60 270t-231 88h-376v-602h-256zM412 1253v-456h419q250 0 250 233q0 129 -68 176q-69 47 -186 47h-415z" />
    <glyph glyph-name="S" unicode="S" horiz-adv-x="1327" 
d="M324 487q0 -161 102 -237t264 -76t238 65t76 156q0 135 -121 180q-90 33 -228 67q-137 34 -209 54q-324 88 -323 371q0 139 80 239q152 190 454 191q240 0 401 -124t161 -343h-256q-16 258 -316 258q-106 0 -187 -45t-81 -145q0 -141 174 -189q2 0 182 -47t240 -65
q137 -41 211 -147t74 -244t-88 -246q-159 -196 -494 -195q-266 0 -436 131t-174 391h256z" />
    <glyph glyph-name="T" unicode="T" horiz-adv-x="1214" 
d="M16 1241v221h1184v-221h-465v-1241h-256v1241h-463z" />
    <glyph glyph-name="U" unicode="U" horiz-adv-x="1478" 
d="M139 526v936h256v-852q0 -249 80 -334q35 -38 102 -64t163 -26t162 27q67 27 102 63q79 82 79 334v852h256v-936q-1 -274 -161 -417t-439 -143t-439 142q-160 144 -161 418z" />
    <glyph glyph-name="V" unicode="V" horiz-adv-x="1251" 
d="M477 0l-487 1462h266l367 -1157h4l374 1157h261l-500 -1462h-285z" />
    <glyph glyph-name="W" unicode="W" horiz-adv-x="1933" 
d="M397 0l-385 1462h260l265 -1118h4l295 1118h262l286 -1118h5l272 1118h260l-403 -1462h-261l-292 1118h-4l-299 -1118h-265z" />
    <glyph glyph-name="X" unicode="X" horiz-adv-x="1327" 
d="M512 758l-483 704h305l332 -516l346 516h286l-483 -704l518 -758h-311l-365 559l-370 -559h-293z" />
    <glyph glyph-name="Y" unicode="Y" horiz-adv-x="1327" 
d="M537 0v573l-549 889h297l387 -655l381 655h286l-546 -889v-573h-256z" />
    <glyph glyph-name="Z" unicode="Z" horiz-adv-x="1290" 
d="M113 1241v221h1112v-194l-852 -1047h872v-221h-1198v209l852 1032h-786z" />
    <glyph glyph-name="bracketleft" unicode="[" horiz-adv-x="606" 
d="M147 -391v1888h457v-184h-235v-1520h235v-184h-457z" />
    <glyph glyph-name="backslash" unicode="\" horiz-adv-x="720" 
d="M178 1497l588 -1532h-223l-588 1532h223z" />
    <glyph glyph-name="bracketright" unicode="]" horiz-adv-x="606" 
d="M459 1497v-1888h-457v184h236v1520h-236v184h457z" />
    <glyph glyph-name="asciicircum" unicode="^" horiz-adv-x="1228" 
d="M381 686h-209l369 748h147l369 -748h-209l-234 506z" />
    <glyph glyph-name="underscore" unicode="_" horiz-adv-x="1024" 
d="M1024 -256h-1024v102h1024v-102z" />
    <glyph glyph-name="grave" unicode="`" horiz-adv-x="493" 
d="M-59 1497h274l186 -293h-170z" />
    <glyph glyph-name="a" unicode="a" 
d="M574 903q-218 0 -236 -168h-234q12 189 146 271t322 82t313 -76t125 -232v-544q0 -44 12 -62t44 -18t56 4v-162q-76 -27 -147 -27q-156 0 -180 129q-66 -63 -166 -96t-201 -33q-154 0 -258 81t-104 229q0 188 133 257q99 51 247 70q62 8 122 16q105 13 163 34
q58 22 60 102q1 143 -217 143zM776 356v174q-55 -33 -158 -46q-102 -13 -129 -17q-88 -14 -139 -53t-51 -116t69 -110q68 -32 154 -32t170 50t84 150z" />
    <glyph glyph-name="b" unicode="b" horiz-adv-x="1251" 
d="M129 0v1462h233v-540h5q47 76 135 120t180 45q240 -1 368 -159t128 -396t-118 -400q-118 -161 -339 -161q-279 0 -367 174h-4v-145h-221zM944 527q0 155 -78 266t-218 111t-217 -101q-77 -99 -77 -269t80 -274t222 -104t215 108t73 263z" />
    <glyph glyph-name="c" unicode="c" 
d="M305 518q0 -150 70 -256t211 -106q102 0 169 64t83 177h233q-33 -207 -157 -317t-328 -109q-242 0 -378 153q-136 154 -136 400t135 405t387 158q195 0 328 -98t149 -284h-233q-14 94 -79 146t-167 52t-185 -72q-102 -86 -102 -313z" />
    <glyph glyph-name="d" unicode="d" horiz-adv-x="1251" 
d="M1120 1462v-1462h-221v143h-4q-43 -86 -132 -129t-196 -43q-243 0 -369 158t-126 418t134 400t324 140q109 1 205 -41t148 -124h4v540h233zM599 156q144 0 220 110t76 274t-79 264q-78 100 -222 99q-144 1 -216 -111t-73 -268q0 -156 75 -262t219 -106z" />
    <glyph glyph-name="e" unicode="e" 
d="M582 903q-116 1 -195 -79q-78 -80 -82 -201h545q-6 117 -79 199t-189 81zM305 469q0 -133 73 -223t212 -90q197 0 258 176h221q-37 -170 -169 -265t-310 -96q-244 0 -381 154t-137 395q0 240 141 404t378 164t380 -187q143 -186 112 -432h-778z" />
    <glyph glyph-name="f" unicode="f" horiz-adv-x="645" 
d="M18 885v174h175v88q0 184 78 250q79 65 203 65t175 -14v-182q-47 12 -108 12q-115 0 -115 -111v-108h199v-174h-199v-885h-233v885h-175z" />
    <glyph glyph-name="g" unicode="g" horiz-adv-x="1214" 
d="M1102 1059v-1004q0 -235 -133 -355t-387 -120q-117 0 -214 29t-173 107t-86 194h233q20 -92 85 -124t169 -32q272 0 272 271v161h-4q-49 -88 -134 -137t-183 -49q-162 0 -272 78q-203 144 -203 479q0 223 130 377t349 153q104 0 187 -44t126 -130h4v146h234zM587 184
q140 0 211 109q70 109 70 259t-70 251q-71 100 -214 100q-143 -1 -211 -109t-68 -255t71 -251t211 -104z" />
    <glyph glyph-name="h" unicode="h" horiz-adv-x="1175" 
d="M123 0v1462h233v-542h4q45 74 130 120t188 47q176 0 275 -92t100 -268v-727h-234v666q-2 123 -52 180t-160 57q-111 0 -181 -80t-70 -198v-625h-233z" />
    <glyph glyph-name="i" unicode="i" horiz-adv-x="493" 
d="M129 1241v221h233v-221h-233zM129 0v1059h233v-1059h-233z" />
    <glyph glyph-name="j" unicode="j" horiz-adv-x="493" 
d="M129 1241v221h233v-221h-233zM129 -80v1139h233v-1149q0 -164 -72 -247t-231 -83q-43 0 -104 8v185q61 -8 80 -9q59 0 77 35q17 35 17 121z" />
    <glyph glyph-name="k" unicode="k" horiz-adv-x="1099" 
d="M129 0v1462h233v-831l422 428h287l-405 -389l444 -670h-285l-323 514l-140 -135v-379h-233z" />
    <glyph glyph-name="l" unicode="l" horiz-adv-x="493" 
d="M129 0v1462h233v-1462h-233z" />
    <glyph glyph-name="m" unicode="m" horiz-adv-x="1781" 
d="M123 0v1059h221v-148h6q117 176 326 176q102 0 182 -45t115 -131q127 176 332 176q174 1 264 -83t90 -273v-731h-234v618q0 187 -46 235q-43 50 -146 50q-225 0 -225 -282v-621h-234v680q0 115 -42 169t-141 54t-167 -74t-68 -200v-629h-233z" />
    <glyph glyph-name="n" unicode="n" horiz-adv-x="1175" 
d="M123 0v1059h221v-156l4 -4q53 88 139 138t191 50q176 0 275 -92t100 -268v-727h-234v666q-2 123 -52 180t-160 57q-111 0 -181 -80t-70 -198v-625h-233z" />
    <glyph glyph-name="o" unicode="o" horiz-adv-x="1214" 
d="M608 -29q-250 0 -392 155q-142 156 -142 404t142 403t392 155t392 -156q142 -154 142 -403t-142 -403t-392 -155zM608 156q147 0 225 110q77 112 77 264t-77 263t-225 111t-224 -112q-77 -110 -77 -263t77 -263t224 -110z" />
    <glyph glyph-name="p" unicode="p" horiz-adv-x="1251" 
d="M129 -391v1450h221v-144h4q94 172 331 172q237 -1 365 -159t128 -396t-118 -400q-118 -161 -339 -161q-109 0 -205 41t-149 125h-5v-528h-233zM944 527q0 155 -78 266t-218 111t-217 -101q-77 -99 -77 -269t80 -274t222 -104t215 108t73 263z" />
    <glyph glyph-name="q" unicode="q" horiz-adv-x="1251" 
d="M1120 1059v-1450h-233v528h-4q-53 -84 -149 -125t-206 -41q-221 0 -339 161q-117 162 -117 400t128 397t364 159t331 -173h4v144h221zM895 529q0 173 -77 273t-217 101q-140 -1 -218 -111t-78 -265t73 -263t220 -108t222 100t75 273z" />
    <glyph glyph-name="r" unicode="r" horiz-adv-x="720" 
d="M123 0v1059h219v-205h4q20 88 112 161t197 72q27 0 88 -6v-225q-82 10 -100 10q-125 0 -206 -96t-81 -266v-504h-233z" />
    <glyph glyph-name="s" unicode="s" horiz-adv-x="1062" 
d="M88 784q0 82 41 144q70 106 250 144q74 15 151 15q178 1 300 -79t143 -246h-244q-27 141 -215 141q-102 0 -147 -33q-45 -32 -45 -66q1 -58 29 -80q51 -37 98 -49q91 -24 185 -43q278 -53 346 -187q28 -54 28 -130q0 -119 -75 -199q-135 -144 -398 -145q-209 1 -338 95
t-131 274h233q16 -184 250 -184t225 139q-4 55 -34 77q-50 35 -105 51t-164 38q-109 23 -166 44t-109 55q-108 71 -108 224z" />
    <glyph glyph-name="t" unicode="t" horiz-adv-x="681" 
d="M485 -10q-172 0 -230 63t-62 207v625h-177v174h177v317h233v-317h211v-174h-211v-566q0 -81 19 -113t89 -32t103 8v-180q-96 -12 -152 -12z" />
    <glyph glyph-name="u" unicode="u" horiz-adv-x="1175" 
d="M1053 1059v-1059h-230v147h-4q-43 -78 -128 -127t-173 -49q-205 1 -300 103t-95 313v672h233v-649q0 -254 203 -254q260 0 260 288v615h234z" />
    <glyph glyph-name="v" unicode="v" horiz-adv-x="1062" 
d="M403 0l-385 1059h254l269 -813h4l258 813h241l-378 -1059h-263z" />
    <glyph glyph-name="w" unicode="w" horiz-adv-x="1593" 
d="M354 0l-327 1059h247l207 -791h4l199 791h236l190 -791h4l215 791h238l-332 -1059h-240l-196 786h-4l-195 -786h-246z" />
    <glyph glyph-name="x" unicode="x" horiz-adv-x="1099" 
d="M8 0l400 557l-367 502h283l221 -326l231 326h271l-361 -490l406 -569h-281l-268 391l-260 -391h-275z" />
    <glyph glyph-name="y" unicode="y" horiz-adv-x="1062" 
d="M268 -420q-82 0 -162 12v197q86 -14 111 -14q74 0 107 35t57 112l27 82l-402 1055h256l277 -791h4l268 791h244l-412 -1116q-74 -184 -115 -240q-90 -123 -260 -123z" />
    <glyph glyph-name="z" unicode="z" horiz-adv-x="1024" 
d="M86 874v185h860v-164l-606 -711h637v-184h-932v164l586 710h-545z" />
    <glyph glyph-name="braceleft" unicode="{" horiz-adv-x="606" 
d="M-8 461v184q63 0 128 36t64 114v422q0 129 89 205t173 75h187v-184h-113q-115 0 -114 -144v-399q0 -76 -44 -127t-84 -66t-85 -22v-4q211 -20 213 -227v-387q0 -143 114 -144h113v-184h-187q-84 0 -173 76t-89 204v406q0 88 -64 127q-65 39 -128 39z" />
    <glyph glyph-name="bar" unicode="|" horiz-adv-x="454" 
d="M123 -438v2048h209v-2048h-209z" />
    <glyph glyph-name="braceright" unicode="}" horiz-adv-x="606" 
d="M614 645v-184q-63 0 -128 -36t-64 -114v-422q0 -129 -89 -205t-173 -75h-187v184h113q115 0 115 144v399q0 76 43 127t84 66t86 22v4q-211 20 -213 227v387q0 143 -115 144h-113v184h187q84 0 173 -76t89 -204v-406q0 -88 64 -127t128 -39z" />
    <glyph glyph-name="asciitilde" unicode="~" horiz-adv-x="1228" 
d="M818 344q-74 0 -198 70t-228 70t-177 -140l-74 172q92 176 256 176q90 0 272 -85q125 -54 164 -54q41 0 77 26t52 45q15 19 52 68l73 -172q-41 -55 -67 -86q-26 -30 -78 -60q-51 -30 -124 -30z" />
    <glyph glyph-name="exclamdown" unicode="&#xa1;" horiz-adv-x="569" 
d="M422 1087v-256h-275v256h275zM414 -375h-256v418l67 637h121l68 -637v-418z" />
    <glyph glyph-name="cent" unicode="&#xa2;" 
d="M549 -213v184q-215 0 -344 158q-129 157 -129 401t132 401t341 156v185h88v-185q174 0 298 -104t138 -278h-233q-10 88 -66 143t-137 55v-747q184 31 211 241h233q-37 -201 -149 -313t-295 -113v-184h-88zM549 156v747q-125 -12 -182 -125t-57 -255q0 -141 58 -245
q60 -104 181 -122z" />
    <glyph glyph-name="sterling" unicode="&#xa3;" 
d="M63 653v133h130q-97 119 -97 296t146 296t333 119q240 0 376 -129t139 -377h-234q-14 311 -276 312q-98 0 -163 -65t-65 -171t94 -281h302v-133h-252q33 -61 32 -137q0 -182 -206 -336l4 -4q138 55 196 55t158 -34q90 -37 151 -37q109 0 199 78l105 -158
q-133 -115 -328 -115q-53 -1 -115 13q-63 14 -88 18q-135 41 -215 41q-125 0 -207 -70l-108 166q86 57 154 151t67 186q0 93 -43 183h-189z" />
    <glyph glyph-name="currency" unicode="&#xa4;" 
d="M570 412q124 0 206 90t82 215t-82 215t-206 90t-209 -89t-85 -217t85 -216t209 -88zM568 1231q183 0 286 -92l119 116l125 -125l-115 -118q96 -102 96 -288t-98 -304l113 -121l-113 -113l-117 119q-106 -102 -294 -102t-300 100l-114 -119l-115 115l117 125
q-102 114 -102 300t102 286l-117 125l117 116l116 -114q111 94 294 94z" />
    <glyph glyph-name="yen" unicode="&#xa5;" 
d="M453 0v338h-281v133h281v139h-281v133h201l-383 719h260l319 -655l326 655h254l-385 -719h203v-133h-281v-139h281v-133h-281v-338h-233z" />
    <glyph glyph-name="brokenbar" unicode="&#xa6;" horiz-adv-x="454" 
d="M123 842v512h209v-512h-209zM123 -182v512h209v-512h-209z" />
    <glyph glyph-name="section" unicode="&#xa7;" 
d="M1096 487q0 -96 -62 -180t-155 -114q113 -93 113 -261t-120 -260q-119 -92 -299 -92t-302 111t-128 309h222q16 -236 215 -236q178 0 178 166q0 57 -20 83q-20 27 -31 43q-12 16 -63 55q-52 38 -96 61q-44 22 -85 44t-89 46t-102 58q-226 135 -227 319q0 211 221 305
q-88 90 -88 207q0 156 123 251t291 95t284 -104q115 -105 117 -283h-221q-4 88 -55 145t-127 57t-127 -43q-51 -44 -51 -99t26 -93t56 -59q29 -20 45 -32t50 -28l51 -27t56 -29q215 -107 307 -195q93 -88 93 -220zM266 666q0 -96 113 -160l373 -209q123 53 122 168
q0 90 -143 170l-340 194q-55 -16 -90 -61t-35 -102z" />
    <glyph glyph-name="dieresis" unicode="&#xa8;" horiz-adv-x="493" 
d="M188 1227h-233v221h233v-221zM307 1448h234v-221h-234v221z" />
    <glyph glyph-name="copyright" unicode="&#xa9;" horiz-adv-x="1638" 
d="M846 268q-195 0 -315 131q-119 131 -119 327t116 320q117 124 314 125q143 -1 244 -81t120 -228h-139q-15 80 -77 128t-148 48q-125 0 -196 -87t-71 -222t75 -231q74 -96 180 -96t166 50q60 52 71 132h141q-27 -144 -126 -230t-236 -86zM1407 731q0 277 -169 455
t-419 178t-419 -178t-169 -450t162 -455t420 -183t426 178t168 455zM1571 731q0 -338 -220 -552t-539 -214q-320 0 -532 218t-212 552t220 548t531 214t531 -214t221 -552z" />
    <glyph glyph-name="ordfeminine" unicode="&#xaa;" horiz-adv-x="778" 
d="M678 1272v-309q0 -25 8 -38t59 -5v-140q-45 -16 -96 -16q-111 0 -127 100q-30 -44 -102 -72t-156 -28t-158 50t-74 138t58 137q59 49 253 75q41 6 61 11t29 7q29 6 48 20t19 45t-22 53t-44 25q-22 4 -57 4q-135 0 -144 -86h-174q11 117 103 168t218 51t212 -48t86 -142z
M500 1006v90q-31 -14 -160 -36t-129 -95q0 -68 115 -68q174 0 174 109z" />
    <glyph glyph-name="guillemotleft" unicode="&#xab;" horiz-adv-x="948" 
d="M825 190l-317 252v230l317 252v-211l-194 -156l194 -156v-211zM420 190l-318 252v230l318 252v-211l-195 -156l195 -156v-211z" />
    <glyph glyph-name="logicalnot" unicode="&#xac;" horiz-adv-x="1228" 
d="M922 221v400h-824v208h1032v-608h-208z" />
    <glyph glyph-name="registered" unicode="&#xae;" horiz-adv-x="1638" 
d="M1407 731q0 277 -169 455t-419 178t-419 -178t-169 -450t162 -455t420 -183t426 178t168 455zM1571 731q0 -338 -220 -552t-539 -214q-320 0 -532 218t-212 552t220 548t531 214t531 -214t221 -552zM670 774h155q96 0 147 25q50 25 50 108q0 115 -184 115h-168v-248z
M670 655v-362h-140v848h322q156 -1 232 -59t77 -185q0 -207 -221 -231l238 -373h-158l-219 362h-131z" />
    <glyph glyph-name="macron" unicode="&#xaf;" horiz-adv-x="493" 
d="M543 1268h-590v133h590v-133z" />
    <glyph glyph-name="macron" unicode="&#x2c9;" horiz-adv-x="493" 
d="M543 1268h-590v133h590v-133z" />
    <glyph glyph-name="degree" unicode="&#xb0;" horiz-adv-x="819" 
d="M217 1155q0 -80 56 -136q57 -56 137 -56t136 56t56 136t-56 136q-56 57 -136 57t-136 -56t-57 -137zM102 1155q0 127 90 217t218 90q127 0 217 -90t90 -217t-90 -217t-217 -90q-128 0 -218 90t-90 217z" />
    <glyph glyph-name="plusminus" unicode="&#xb1;" horiz-adv-x="1228" 
d="M98 0v209h1032v-209h-1032zM510 780v256h209v-256h411v-209h-411v-256h-209v256h-412v209h412z" />
    <glyph glyph-name="twosuperior" unicode="&#xb2;" horiz-adv-x="737" 
d="M688 702v-143h-645q2 225 205 350q20 14 74 47q161 100 183 148q23 49 24 100t-42 83t-106 32q-141 0 -150 -191h-178q0 156 90 245q89 89 237 89t238 -66t91 -200q0 -156 -209 -289q-18 -12 -76 -48t-81 -52q-25 -16 -53 -46t-38 -59h436z" />
    <glyph glyph-name="threesuperior" unicode="&#xb3;" horiz-adv-x="737" 
d="M358 1319q-62 0 -103 -44q-42 -44 -40 -112h-164q6 141 90 220q85 79 219 79t222 -58t88 -188t-131 -176v-4q78 -14 123 -72t45 -143q-1 -131 -97 -206t-250 -75t-239 84q-84 83 -88 234h164q-4 -76 42 -125t125 -49t129 40t50 116q0 141 -244 133v119q86 -4 146 26
q61 30 61 90t-43 86t-105 25z" />
    <glyph glyph-name="acute" unicode="&#xb4;" horiz-adv-x="493" 
d="M92 1204l184 293h277l-291 -293h-170z" />
    <glyph glyph-name="mu" unicode="&#xb5;" horiz-adv-x="1175" 
d="M1053 1059v-1059h-230v147h-4q-41 -78 -123 -127t-155 -49q-121 0 -185 74v-436h-233v1450h233v-649q0 -254 203 -254q260 0 260 288v615h234z" />
    <glyph glyph-name="mu" unicode="&#x3bc;" horiz-adv-x="1175" 
d="M1053 1059v-1059h-230v147h-4q-41 -78 -123 -127t-155 -49q-121 0 -185 74v-436h-233v1450h233v-649q0 -254 203 -254q260 0 260 288v615h234z" />
    <glyph glyph-name="paragraph" unicode="&#xb6;" horiz-adv-x="1228" 
d="M504 -328v1033q-197 0 -319 104t-122 268q0 199 126 292t352 93h530v-1790h-164v1657h-239v-1657h-164z" />
    <glyph glyph-name="periodcentered" unicode="&#xb7;" horiz-adv-x="569" 
d="M131 617q0 61 47 107q48 46 108 46t106 -46t46 -106t-46 -108q-46 -47 -107 -47t-108 47q-46 47 -46 107z" />
    <glyph glyph-name="periodcentered" unicode="&#x2219;" horiz-adv-x="569" 
d="M131 617q0 61 47 107q48 46 108 46t106 -46t46 -106t-46 -108q-46 -47 -107 -47t-108 47q-46 47 -46 107z" />
    <glyph glyph-name="cedilla" unicode="&#xb8;" horiz-adv-x="493" 
d="M313 -276q0 37 -28 57q-29 20 -70 20t-76 -20l-45 39l135 180h99l-92 -119v-4q16 6 76 6t112 -40q53 -39 53 -123t-73 -128q-72 -44 -192 -45q-120 0 -194 43l37 82q98 -33 133 -32q125 0 125 84z" />
    <glyph glyph-name="onesuperior" unicode="&#xb9;" horiz-adv-x="737" 
d="M74 1182v118q112 0 188 36t94 108h144v-885h-178v623h-248z" />
    <glyph glyph-name="ordmasculine" unicode="&#xba;" horiz-adv-x="778" 
d="M760 1112q0 -160 -95 -254t-269 -94t-270 94q-95 94 -95 254t95 255t269 95q173 0 269 -95t96 -255zM209 1112q0 -86 49 -150t138 -65q88 -1 134 63t52 152q0 84 -50 151t-137 67q-88 0 -137 -66t-49 -152z" />
    <glyph glyph-name="guillemotright" unicode="&#xbb;" horiz-adv-x="948" 
d="M528 924l318 -252v-230l-318 -252v211l195 156l-195 156v211zM123 924l317 -252v-230l-317 -252v211l194 156l-194 156v211z" />
    <glyph glyph-name="onequarter" unicode="&#xbc;" horiz-adv-x="1708" 
d="M289 -49l858 1532h160l-856 -1532h-162zM76 1182v118q108 0 186 36t96 108h144v-885h-178v623h-248zM1294 352v324h-4l-239 -324h243zM1473 199v-199h-179v199h-399v166l379 512h199v-525h96v-153h-96z" />
    <glyph glyph-name="onehalf" unicode="&#xbd;" horiz-adv-x="1708" 
d="M1614 143v-143h-645q0 137 69 227t227 184t180 152q11 31 11 82t-42 88t-107 37q-141 0 -150 -201h-178q0 160 88 252q87 92 237 92q150 -1 240 -71t90 -205q0 -94 -58 -163t-201 -158q-144 -88 -166 -119q-23 -32 -31 -54h436zM74 1182v118q112 0 188 36t94 108h144
v-885h-178v623h-248zM281 -49l858 1532h159l-856 -1532h-161z" />
    <glyph glyph-name="threequarters" unicode="&#xbe;" horiz-adv-x="1708" 
d="M358 1319q-62 0 -103 -44q-42 -44 -40 -112h-164q6 141 90 220q85 79 219 79t222 -58t88 -188t-131 -176v-4q78 -14 123 -72t45 -143q-1 -131 -97 -206t-250 -75t-239 84q-84 83 -88 234h164q-4 -76 42 -125t125 -49t129 40t50 105q0 150 -244 142v119q86 -4 146 28
q61 32 61 90q0 60 -43 86t-105 25zM401 -49l859 1532h159l-856 -1532h-162zM1370 352v324h-4l-240 -324h244zM1548 199v-199h-178v199h-399v166l375 512h202v-525h97v-153h-97z" />
    <glyph glyph-name="questiondown" unicode="&#xbf;" 
d="M430 1087h275v-256h-275v256zM805 80h233q2 -219 -132 -354q-134 -136 -343 -136t-336 109t-127 295q0 139 59 216q31 42 53 64t80 69q58 48 86 79q30 30 56 98t27 160h221q0 -170 -39 -261t-153 -182q-24 -19 -32 -27l-26 -26q-76 -76 -76 -181t66 -161t135 -57
q123 0 185 80t63 215z" />
    <glyph glyph-name="Agrave" unicode="&#xc0;" horiz-adv-x="1366" 
d="M377 1901h274l187 -293h-170zM-14 0l561 1462h272l563 -1462h-274l-137 387h-584l-137 -387h-264zM678 1210l-221 -628h446l-219 628h-6z" />
    <glyph glyph-name="Aacute" unicode="&#xc1;" horiz-adv-x="1366" 
d="M528 1577l185 293h276l-291 -293h-170zM-14 0l561 1462h272l563 -1462h-274l-137 387h-584l-137 -387h-264zM678 1210l-221 -628h446l-219 628h-6z" />
    <glyph glyph-name="Acircumflex" unicode="&#xc2;" horiz-adv-x="1366" 
d="M682 1792l-143 -184h-189l219 293h228l221 -293h-191zM-14 0l561 1462h272l563 -1462h-274l-137 387h-584l-137 -387h-264zM678 1210l-221 -628h446l-219 628h-6z" />
    <glyph glyph-name="Atilde" unicode="&#xc3;" horiz-adv-x="1366" 
d="M817 1630q-55 0 -151 39q-106 37 -142 37t-60 -27q-26 -27 -26 -57h-116q14 90 70 161q96 122 308 32q100 -39 127 -39q78 0 103 90h114q-16 -111 -67 -166q-57 -70 -160 -70zM-14 0l561 1462h272l563 -1462h-274l-137 387h-584l-137 -387h-264zM678 1210l-221 -628h446
l-219 628h-6z" />
    <glyph glyph-name="Adieresis" unicode="&#xc4;" horiz-adv-x="1366" 
d="M625 1630h-234v221h234v-221zM743 1851h234v-221h-234v221zM-14 0l561 1462h272l563 -1462h-274l-137 387h-584l-137 -387h-264zM678 1210l-221 -628h446l-219 628h-6z" />
    <glyph glyph-name="Aring" unicode="&#xc5;" horiz-adv-x="1366" 
d="M559 1740q0 -50 38 -88t88 -38t87 38t37 88t-37 87t-87 37t-88 -37t-38 -87zM685 1528q-85 0 -148 63t-63 149t62 147q64 63 149 63t147 -62t63 -148q0 -85 -62 -149q-63 -63 -148 -63zM-14 0l561 1462h272l563 -1462h-274l-137 387h-584l-137 -387h-264zM678 1210
l-221 -628h446l-219 628h-6z" />
    <glyph glyph-name="AE" unicode="&#xc6;" horiz-adv-x="1972" 
d="M1892 1462v-221h-712v-383h667v-209h-667v-428h725v-221h-969v375h-490l-176 -375h-284l727 1462h1179zM936 569v672h-74l-321 -672h395z" />
    <glyph glyph-name="Ccedilla" unicode="&#xc7;" horiz-adv-x="1478" 
d="M803 -117q61 0 113 -40q52 -39 52 -123t-72 -128t-192 -45q-120 0 -194 43l37 82q98 -33 133 -32q125 0 125 84q0 37 -29 57q-30 20 -70 20t-75 -20l-45 39l112 149q-284 29 -452 245t-168 528t190 534q190 221 510 221q254 -2 426 -135t195 -365h-256q-74 291 -365 291
q-219 0 -332 -163q-112 -163 -112 -394t112 -394t332 -163q164 0 260 108t113 275h250q-16 -260 -183 -424t-425 -166l-66 -86v-4q16 6 76 6z" />
    <glyph glyph-name="Egrave" unicode="&#xc8;" horiz-adv-x="1290" 
d="M340 1901h274l187 -293h-170zM156 0v1462h1052v-221h-796v-383h737v-209h-737v-428h811v-221h-1067z" />
    <glyph glyph-name="Eacute" unicode="&#xc9;" horiz-adv-x="1290" 
d="M492 1608l184 293h276l-290 -293h-170zM156 0v1462h1052v-221h-796v-383h737v-209h-737v-428h811v-221h-1067z" />
    <glyph glyph-name="Ecircumflex" unicode="&#xca;" horiz-adv-x="1290" 
d="M645 1792l-143 -184h-189l219 293h228l221 -293h-190zM156 0v1462h1052v-221h-796v-383h737v-209h-737v-428h811v-221h-1067z" />
    <glyph glyph-name="Edieresis" unicode="&#xcb;" horiz-adv-x="1290" 
d="M588 1630h-234v221h234v-221zM707 1851h233v-221h-233v221zM156 0v1462h1052v-221h-796v-383h737v-209h-737v-428h811v-221h-1067z" />
    <glyph glyph-name="Igrave" unicode="&#xcc;" horiz-adv-x="569" 
d="M-20 1901h274l186 -293h-170zM156 0v1462h256v-1462h-256z" />
    <glyph glyph-name="Iacute" unicode="&#xcd;" horiz-adv-x="569" 
d="M131 1597l184 293h277l-291 -293h-170zM156 0v1462h256v-1462h-256z" />
    <glyph glyph-name="Icircumflex" unicode="&#xce;" horiz-adv-x="569" 
d="M285 1792l-144 -184h-188l219 293h227l222 -293h-191zM156 0v1462h256v-1462h-256z" />
    <glyph glyph-name="Idieresis" unicode="&#xcf;" horiz-adv-x="569" 
d="M227 1630h-233v221h233v-221zM346 1851h234v-221h-234v221zM156 0v1462h256v-1462h-256z" />
    <glyph glyph-name="Eth" unicode="&#xd0;" horiz-adv-x="1478" 
d="M412 1253v-395h399v-209h-399v-440h252q288 0 395 152q51 75 71 163t21 207q0 235 -92 370q-103 152 -395 152h-252zM156 0v649h-138v209h138v604h606q322 0 484 -204t161 -528q0 -324 -162 -526q-162 -204 -483 -204h-606z" />
    <glyph glyph-name="Ntilde" unicode="&#xd1;" horiz-adv-x="1478" 
d="M874 1630q-55 0 -151 39q-106 37 -141 37t-61 -27t-25 -57h-117q15 90 71 161t137 71t176 -40q95 -38 122 -38q77 0 102 90h115q-16 -111 -68 -166q-57 -70 -160 -70zM145 0v1462h271l667 -1077h4v1077h244v-1462h-270l-666 1075h-6v-1075h-244z" />
    <glyph glyph-name="Ograve" unicode="&#xd2;" horiz-adv-x="1556" 
d="M473 1901h275l186 -293h-170zM778 1288q-219 0 -332 -163q-112 -163 -112 -394t112 -394t332 -163q219 0 332 163t113 394t-113 394t-332 163zM778 1497q320 0 510 -221t190 -545t-190 -545t-510 -221t-510 221t-190 545t190 545q191 221 510 221z" />
    <glyph glyph-name="Oacute" unicode="&#xd3;" horiz-adv-x="1556" 
d="M625 1577l184 293h276l-290 -293h-170zM778 1288q-219 0 -332 -163q-112 -163 -112 -394t112 -394t332 -163q219 0 332 163t113 394t-113 394t-332 163zM778 1497q320 0 510 -221t190 -545t-190 -545t-510 -221t-510 221t-190 545t190 545q191 221 510 221z" />
    <glyph glyph-name="Ocircumflex" unicode="&#xd4;" horiz-adv-x="1556" 
d="M778 1792l-143 -184h-189l220 293h227l221 -293h-190zM778 1288q-219 0 -332 -163q-112 -163 -112 -394t112 -394t332 -163q219 0 332 163t113 394t-113 394t-332 163zM778 1497q320 0 510 -221t190 -545t-190 -545t-510 -221t-510 221t-190 545t190 545q191 221 510 221
z" />
    <glyph glyph-name="Otilde" unicode="&#xd5;" horiz-adv-x="1556" 
d="M913 1630q-53 0 -151 39q-106 37 -141 37t-61 -27t-25 -57h-117q14 90 70 161q96 122 309 32q100 -39 127 -39q77 0 102 90h115q-16 -111 -68 -166q-57 -70 -160 -70zM778 1288q-219 0 -332 -163q-112 -163 -112 -394t112 -394t332 -163q219 0 332 163t113 394t-113 394
t-332 163zM778 1497q320 0 510 -221t190 -545t-190 -545t-510 -221t-510 221t-190 545t190 545q191 221 510 221z" />
    <glyph glyph-name="Odieresis" unicode="&#xd6;" horiz-adv-x="1556" 
d="M721 1630h-234v221h234v-221zM840 1851h233v-221h-233v221zM778 1288q-219 0 -332 -163q-112 -163 -112 -394t112 -394t332 -163q219 0 332 163t113 394t-113 394t-332 163zM778 1497q320 0 510 -221t190 -545t-190 -545t-510 -221t-510 221t-190 545t190 545
q191 221 510 221z" />
    <glyph glyph-name="multiply" unicode="&#xd7;" horiz-adv-x="1228" 
d="M469 518l-356 356l176 115l323 -325l328 325l176 -115l-358 -356l358 -356l-176 -115l-328 328l-323 -328l-176 115z" />
    <glyph glyph-name="Oslash" unicode="&#xd8;" horiz-adv-x="1556" 
d="M1479 720q-1 -314 -191 -534q-190 -221 -510 -221q-274 0 -454 168l-156 -174l-86 74l162 184q-166 211 -166 525t190 534q190 221 510 221q272 0 455 -166l153 172l89 -73l-162 -183q166 -213 166 -527zM778 174q219 0 332 163t113 375t-76 349l-672 -758
q119 -129 303 -129zM764 1288q-204 0 -318 -163q-112 -163 -112 -376t74 -348l673 758q-113 129 -317 129z" />
    <glyph glyph-name="Ugrave" unicode="&#xd9;" horiz-adv-x="1478" 
d="M434 1901h275l186 -293h-170zM139 526v936h256v-852q0 -249 80 -334q35 -38 102 -64t163 -26t162 27q67 27 102 63q79 82 79 334v852h256v-936q-1 -274 -161 -417t-439 -143t-439 142q-160 144 -161 418z" />
    <glyph glyph-name="Uacute" unicode="&#xda;" horiz-adv-x="1478" 
d="M586 1577l184 293h277l-291 -293h-170zM139 526v936h256v-852q0 -249 80 -334q35 -38 102 -64t163 -26t162 27q67 27 102 63q79 82 79 334v852h256v-936q-1 -274 -161 -417t-439 -143t-439 142q-160 144 -161 418z" />
    <glyph glyph-name="Ucircumflex" unicode="&#xdb;" horiz-adv-x="1478" 
d="M739 1792l-143 -184h-188l219 293h227l221 -293h-190zM139 526v936h256v-852q0 -249 80 -334q35 -38 102 -64t163 -26t162 27q67 27 102 63q79 82 79 334v852h256v-936q-1 -274 -161 -417t-439 -143t-439 142q-160 144 -161 418z" />
    <glyph glyph-name="Udieresis" unicode="&#xdc;" horiz-adv-x="1478" 
d="M682 1630h-233v221h233v-221zM801 1851h233v-221h-233v221zM139 526v936h256v-852q0 -249 80 -334q35 -38 102 -64t163 -26t162 27q67 27 102 63q79 82 79 334v852h256v-936q-1 -274 -161 -417t-439 -143t-439 142q-160 144 -161 418z" />
    <glyph glyph-name="Yacute" unicode="&#xdd;" horiz-adv-x="1327" 
d="M510 1577l184 293h277l-291 -293h-170zM537 0v573l-549 889h297l387 -655l381 655h286l-546 -889v-573h-256z" />
    <glyph glyph-name="Thorn" unicode="&#xde;" horiz-adv-x="1366" 
d="M412 1032v-483h374q102 0 180 57q77 57 76 185q0 242 -251 241h-379zM156 0v1462h256v-221h389q147 0 251 -43t155 -117q91 -135 91 -295q0 -161 -91 -288q-50 -72 -154 -115t-252 -43h-389v-340h-256z" />
    <glyph glyph-name="germandbls" unicode="&#xdf;" horiz-adv-x="1175" 
d="M129 0v1071q0 197 125 311q124 114 312 115q188 0 318 -100t130 -269q0 -110 -53 -194t-156 -115v-4q125 -15 200 -117t74 -233q0 -215 -128 -354t-341 -140q-57 0 -114 6v185q31 -6 98 -6q66 0 124 28q128 63 128 291q0 135 -113 201q-78 51 -235 51v154q141 0 202 53
q80 59 80 172q0 207 -207 207q-88 1 -149 -59t-62 -207v-1047h-233z" />
    <glyph glyph-name="agrave" unicode="&#xe0;" 
d="M264 1497h275l186 -293h-170zM574 903q-218 0 -236 -168h-234q12 189 146 271t322 82t313 -76t125 -232v-544q0 -44 12 -62t44 -18t56 4v-162q-76 -27 -147 -27q-156 0 -180 129q-66 -63 -166 -96t-201 -33q-154 0 -258 81t-104 229q0 188 133 257q99 51 247 70
q62 8 122 16q105 13 163 34q58 22 60 102q1 143 -217 143zM776 356v174q-55 -33 -158 -46q-102 -13 -129 -17q-88 -14 -139 -53t-51 -116t69 -110q68 -32 154 -32t170 50t84 150z" />
    <glyph glyph-name="aacute" unicode="&#xe1;" 
d="M416 1204l184 293h277l-291 -293h-170zM574 903q-218 0 -236 -168h-234q12 189 146 271t322 82t313 -76t125 -232v-544q0 -44 12 -62t44 -18t56 4v-162q-76 -27 -147 -27q-156 0 -180 129q-66 -63 -166 -96t-201 -33q-154 0 -258 81t-104 229q0 188 133 257q99 51 247 70
q62 8 122 16q105 13 163 34q58 22 60 102q1 143 -217 143zM776 356v174q-55 -33 -158 -46q-102 -13 -129 -17q-88 -14 -139 -53t-51 -116t69 -110q68 -32 154 -32t170 50t84 150z" />
    <glyph glyph-name="acircumflex" unicode="&#xe2;" 
d="M569 1389l-143 -185h-188l219 293h227l221 -293h-190zM574 903q-218 0 -236 -168h-234q12 189 146 271t322 82t313 -76t125 -232v-544q0 -44 12 -62t44 -18t56 4v-162q-76 -27 -147 -27q-156 0 -180 129q-66 -63 -166 -96t-201 -33q-154 0 -258 81t-104 229
q0 188 133 257q99 51 247 70q62 8 122 16q105 13 163 34q58 22 60 102q1 143 -217 143zM776 356v174q-55 -33 -158 -46q-102 -13 -129 -17q-88 -14 -139 -53t-51 -116t69 -110q68 -32 154 -32t170 50t84 150z" />
    <glyph glyph-name="atilde" unicode="&#xe3;" 
d="M412 1303q-35 0 -61 -27t-25 -57h-117q15 91 71 161t137 70t176 -39t122 -39q77 0 102 90h115q-16 -111 -68 -166q-57 -70 -159 -69q-53 0 -152 39q-106 37 -141 37zM574 903q-218 0 -236 -168h-234q12 189 146 271t322 82t313 -76t125 -232v-544q0 -44 12 -62t44 -18
t56 4v-162q-76 -27 -147 -27q-156 0 -180 129q-66 -63 -166 -96t-201 -33q-154 0 -258 81t-104 229q0 188 133 257q99 51 247 70q62 8 122 16q105 13 163 34q58 22 60 102q1 143 -217 143zM776 356v174q-55 -33 -158 -46q-102 -13 -129 -17q-88 -14 -139 -53t-51 -116
t69 -110q68 -32 154 -32t170 50t84 150z" />
    <glyph glyph-name="adieresis" unicode="&#xe4;" 
d="M512 1227h-233v221h233v-221zM631 1448h233v-221h-233v221zM574 903q-218 0 -236 -168h-234q12 189 146 271t322 82t313 -76t125 -232v-544q0 -44 12 -62t44 -18t56 4v-162q-76 -27 -147 -27q-156 0 -180 129q-66 -63 -166 -96t-201 -33q-154 0 -258 81t-104 229
q0 188 133 257q99 51 247 70q62 8 122 16q105 13 163 34q58 22 60 102q1 143 -217 143zM776 356v174q-55 -33 -158 -46q-102 -13 -129 -17q-88 -14 -139 -53t-51 -116t69 -110q68 -32 154 -32t170 50t84 150z" />
    <glyph glyph-name="aring" unicode="&#xe5;" 
d="M446 1336q0 -50 38 -88t88 -38t87 38t37 88t-37 87t-87 37t-88 -37t-38 -87zM572 1124q-85 0 -148 64q-64 64 -64 148q0 86 64 148t148 62q86 0 148 -62t62 -148t-62 -148q-62 -64 -148 -64zM574 903q-218 0 -236 -168h-234q12 189 146 271t322 82t313 -76t125 -232v-544
q0 -44 12 -62t44 -18t56 4v-162q-76 -27 -147 -27q-156 0 -180 129q-66 -63 -166 -96t-201 -33q-154 0 -258 81t-104 229q0 188 133 257q99 51 247 70q62 8 122 16q105 13 163 34q58 22 60 102q1 143 -217 143zM776 356v174q-55 -33 -158 -46q-102 -13 -129 -17
q-88 -14 -139 -53t-51 -116t69 -110q68 -32 154 -32t170 50t84 150z" />
    <glyph glyph-name="ae" unicode="&#xe6;" horiz-adv-x="1820" 
d="M778 760q0 143 -211 143t-229 -168h-234q12 189 146 271t330 81q262 0 358 -143q108 143 352 143t369 -171t106 -447h-768q-2 -131 69 -222t208 -91q187 0 250 178h233q-45 -168 -174 -265t-305 -98q-279 0 -389 195q-131 -195 -440 -195q-166 0 -275 80t-108 230
q0 188 133 257q99 51 245 70q199 26 248 38t67 46q19 35 19 68zM299 296q1 -142 221 -140q96 0 176 58t80 155v157q-39 -34 -145 -43q-107 -10 -139 -16q-90 -14 -142 -53t-51 -118zM1268 903q-122 1 -193 -79q-70 -80 -78 -201h535q2 127 -70 203t-194 77z" />
    <glyph glyph-name="ccedilla" unicode="&#xe7;" 
d="M633 -117q61 0 113 -40q52 -39 52 -123t-72 -128t-192 -45q-120 0 -194 43l37 82q98 -33 133 -32q125 0 125 84q0 37 -29 57q-30 20 -70 20t-75 -20l-45 39l116 155q-220 16 -340 166q-120 149 -120 389t135 399t387 158q195 0 328 -98t149 -284h-233q-14 94 -79 146
t-167 52t-185 -72q-102 -86 -102 -313q0 -150 70 -256t211 -106q102 0 169 64t83 177h233q-31 -195 -145 -305t-297 -117l-72 -94v-4q16 6 76 6z" />
    <glyph glyph-name="egrave" unicode="&#xe8;" 
d="M264 1497h275l186 -293h-170zM582 903q-116 1 -195 -79q-78 -80 -82 -201h545q-6 117 -79 199t-189 81zM305 469q0 -133 73 -223t212 -90q197 0 258 176h221q-37 -170 -169 -265t-310 -96q-244 0 -381 154t-137 395q0 240 141 404t378 164t380 -187q143 -186 112 -432
h-778z" />
    <glyph glyph-name="eacute" unicode="&#xe9;" 
d="M416 1204l184 293h277l-291 -293h-170zM582 903q-116 1 -195 -79q-78 -80 -82 -201h545q-6 117 -79 199t-189 81zM305 469q0 -133 73 -223t212 -90q197 0 258 176h221q-37 -170 -169 -265t-310 -96q-244 0 -381 154t-137 395q0 240 141 404t378 164t380 -187
q143 -186 112 -432h-778z" />
    <glyph glyph-name="ecircumflex" unicode="&#xea;" 
d="M569 1389l-143 -185h-188l219 293h227l221 -293h-190zM582 903q-116 1 -195 -79q-78 -80 -82 -201h545q-6 117 -79 199t-189 81zM305 469q0 -133 73 -223t212 -90q197 0 258 176h221q-37 -170 -169 -265t-310 -96q-244 0 -381 154t-137 395q0 240 141 404t378 164
t380 -187q143 -186 112 -432h-778z" />
    <glyph glyph-name="edieresis" unicode="&#xeb;" 
d="M512 1227h-233v221h233v-221zM631 1448h233v-221h-233v221zM582 903q-116 1 -195 -79q-78 -80 -82 -201h545q-6 117 -79 199t-189 81zM305 469q0 -133 73 -223t212 -90q197 0 258 176h221q-37 -170 -169 -265t-310 -96q-244 0 -381 154t-137 395q0 240 141 404t378 164
t380 -187q143 -186 112 -432h-778z" />
    <glyph glyph-name="igrave" unicode="&#xec;" horiz-adv-x="493" 
d="M-59 1497h274l186 -293h-170zM362 0h-233v1059h233v-1059z" />
    <glyph glyph-name="iacute" unicode="&#xed;" horiz-adv-x="493" 
d="M92 1204l184 293h277l-291 -293h-170zM362 0h-233v1059h233v-1059z" />
    <glyph glyph-name="icircumflex" unicode="&#xee;" horiz-adv-x="493" 
d="M246 1389l-144 -185h-188l219 293h227l222 -293h-191zM362 0h-233v1059h233v-1059z" />
    <glyph glyph-name="idieresis" unicode="&#xef;" horiz-adv-x="493" 
d="M188 1227h-233v221h233v-221zM307 1448h234v-221h-234v221zM362 0h-233v1059h233v-1059z" />
    <glyph glyph-name="eth" unicode="&#xf0;" horiz-adv-x="1214" 
d="M1126 633q0 -295 -134 -478t-417 -184q-229 0 -359 151t-130 378t126 382t331 154q166 0 293 -90h4q-59 131 -222 268l-221 -106l-102 100l197 95q-127 55 -175 69l156 125q113 -37 213 -102l215 102l100 -100l-192 -92q153 -125 235 -299t82 -373zM893 504
q0 142 -71 246q-72 102 -218 102t-216 -97t-69 -250q0 -153 69 -251t203 -98t218 103t84 245z" />
    <glyph glyph-name="ntilde" unicode="&#xf1;" horiz-adv-x="1175" 
d="M430 1303q-34 0 -60 -27t-26 -57h-117q15 91 71 161t137 70t176 -39t122 -39q78 0 103 90h114q-16 -111 -67 -166q-57 -70 -160 -69q-53 0 -152 39q-106 37 -141 37zM123 0v1059h221v-156l4 -4q53 88 139 138t191 50q176 0 275 -92t100 -268v-727h-234v666
q-2 123 -52 180t-160 57q-111 0 -181 -80t-70 -198v-625h-233z" />
    <glyph glyph-name="ograve" unicode="&#xf2;" horiz-adv-x="1214" 
d="M301 1497h274l187 -293h-170zM608 -29q-250 0 -392 155q-142 156 -142 404t142 403t392 155t392 -156q142 -154 142 -403t-142 -403t-392 -155zM608 156q147 0 225 110q77 112 77 264t-77 263t-225 111t-224 -112q-77 -110 -77 -263t77 -263t224 -110z" />
    <glyph glyph-name="oacute" unicode="&#xf3;" horiz-adv-x="1214" 
d="M453 1204l184 293h276l-290 -293h-170zM608 -29q-250 0 -392 155q-142 156 -142 404t142 403t392 155t392 -156q142 -154 142 -403t-142 -403t-392 -155zM608 156q147 0 225 110q77 112 77 264t-77 263t-225 111t-224 -112q-77 -110 -77 -263t77 -263t224 -110z" />
    <glyph glyph-name="ocircumflex" unicode="&#xf4;" horiz-adv-x="1214" 
d="M606 1389l-143 -185h-189l220 293h227l221 -293h-190zM608 -29q-250 0 -392 155q-142 156 -142 404t142 403t392 155t392 -156q142 -154 142 -403t-142 -403t-392 -155zM608 156q147 0 225 110q77 112 77 264t-77 263t-225 111t-224 -112q-77 -110 -77 -263t77 -263
t224 -110z" />
    <glyph glyph-name="otilde" unicode="&#xf5;" horiz-adv-x="1214" 
d="M449 1303q-35 0 -61 -27t-26 -57h-116q14 91 70 161t138 70t176 -39q95 -39 122 -39q77 0 102 90h115q-16 -111 -68 -166q-57 -70 -160 -69q-55 0 -151 39q-106 37 -141 37zM608 -29q-250 0 -392 155q-142 156 -142 404t142 403t392 155t392 -156q142 -154 142 -403
t-142 -403t-392 -155zM608 156q147 0 225 110q77 112 77 264t-77 263t-225 111t-224 -112q-77 -110 -77 -263t77 -263t224 -110z" />
    <glyph glyph-name="odieresis" unicode="&#xf6;" horiz-adv-x="1214" 
d="M549 1227h-234v221h234v-221zM668 1448h233v-221h-233v221zM608 -29q-250 0 -392 155q-142 156 -142 404t142 403t392 155t392 -156q142 -154 142 -403t-142 -403t-392 -155zM608 156q147 0 225 110q77 112 77 264t-77 263t-225 111t-224 -112q-77 -110 -77 -263t77 -263
t224 -110z" />
    <glyph glyph-name="divide" unicode="&#xf7;" horiz-adv-x="1228" 
d="M614 244q60 0 104 -44t44 -102t-44 -103q-44 -46 -103 -46q-58 0 -103 44t-45 104q0 59 44 103t103 44zM614 1087q60 0 104 -44t44 -101t-44 -103t-103 -46q-58 0 -103 44t-45 104t44 103t103 43zM1130 414h-1032v209h1032v-209z" />
    <glyph glyph-name="oslash" unicode="&#xf8;" horiz-adv-x="1214" 
d="M596 903q-135 -1 -212 -111t-77 -246t47 -229l457 500q-80 86 -215 86zM74 538q0 240 142 395t392 154q213 0 348 -112l129 141l66 -57l-133 -146q125 -153 125 -393q-1 -240 -143 -394t-392 -155q-209 0 -346 115l-131 -143l-65 57l133 147q-125 151 -125 391zM620 156
q134 0 213 110q77 111 77 247t-48 228l-456 -499q80 -86 214 -86z" />
    <glyph glyph-name="ugrave" unicode="&#xf9;" horiz-adv-x="1175" 
d="M283 1497h274l186 -293h-170zM1053 1059v-1059h-230v147h-4q-43 -78 -128 -127t-173 -49q-205 1 -300 103t-95 313v672h233v-649q0 -254 203 -254q260 0 260 288v615h234z" />
    <glyph glyph-name="uacute" unicode="&#xfa;" horiz-adv-x="1175" 
d="M434 1204l184 293h277l-291 -293h-170zM1053 1059v-1059h-230v147h-4q-43 -78 -128 -127t-173 -49q-205 1 -300 103t-95 313v672h233v-649q0 -254 203 -254q260 0 260 288v615h234z" />
    <glyph glyph-name="ucircumflex" unicode="&#xfb;" horiz-adv-x="1175" 
d="M588 1389l-144 -185h-188l219 293h227l222 -293h-191zM1053 1059v-1059h-230v147h-4q-43 -78 -128 -127t-173 -49q-205 1 -300 103t-95 313v672h233v-649q0 -254 203 -254q260 0 260 288v615h234z" />
    <glyph glyph-name="udieresis" unicode="&#xfc;" horiz-adv-x="1175" 
d="M530 1227h-233v221h233v-221zM649 1448h234v-221h-234v221zM1053 1059v-1059h-230v147h-4q-43 -78 -128 -127t-173 -49q-205 1 -300 103t-95 313v672h233v-649q0 -254 203 -254q260 0 260 288v615h234z" />
    <glyph glyph-name="yacute" unicode="&#xfd;" horiz-adv-x="1062" 
d="M377 1204l184 293h277l-291 -293h-170zM268 -420q-82 0 -162 12v197q86 -14 111 -14q74 0 107 35t57 112l27 82l-402 1055h256l277 -791h4l268 791h244l-412 -1116q-74 -184 -115 -240q-90 -123 -260 -123z" />
    <glyph glyph-name="thorn" unicode="&#xfe;" horiz-adv-x="1251" 
d="M944 527q0 155 -78 266t-218 111t-217 -101q-77 -99 -77 -269t80 -274t222 -104t215 108t73 263zM129 -391v1853h233v-540h5q47 76 135 120t180 45q240 -1 368 -159t128 -396t-118 -400q-118 -161 -339 -161q-109 0 -206 41t-148 125h-5v-528h-233z" />
    <glyph glyph-name="ydieresis" unicode="&#xff;" horiz-adv-x="1062" 
d="M473 1227h-233v221h233v-221zM592 1448h233v-221h-233v221zM268 -420q-82 0 -162 12v197q86 -14 111 -14q74 0 107 35t57 112l27 82l-402 1055h256l277 -791h4l268 791h244l-412 -1116q-74 -184 -115 -240q-90 -123 -260 -123z" />
    <glyph glyph-name="dotlessi" unicode="&#x131;" horiz-adv-x="493" 
d="M362 0h-233v1059h233v-1059z" />
    <glyph glyph-name="Lslash" unicode="&#x141;" horiz-adv-x="1175" 
d="M156 1462h256v-626l409 290v-190l-409 -291v-424h743v-221h-999v465l-156 -111v185l156 110v813z" />
    <glyph glyph-name="lslash" unicode="&#x142;" horiz-adv-x="493" 
d="M129 0v653l-139 -108v145l139 109v663h233v-481l140 111v-148l-140 -110v-834h-233z" />
    <glyph glyph-name="OE" unicode="&#x152;" horiz-adv-x="2238" 
d="M1374 1241v-383h703v-209h-703v-428h780v-221h-1013v131q-141 -166 -385 -166q-209 1 -365 107t-231 276q-76 170 -76 378t79 381t238 282t383 109t357 -152v116h999v-221h-766zM1130 449v544q0 123 -91 209t-249 86t-260 -85t-146 -208t-44 -266t44 -265t146 -206
t254 -84t249 88t97 187z" />
    <glyph glyph-name="oe" unicode="&#x153;" horiz-adv-x="1857" 
d="M575 903q-137 1 -203 -109t-67 -257q0 -264 137 -349q55 -32 133 -32q157 1 218 123q53 104 53 255q0 150 -67 260t-204 109zM1307 903q-121 0 -195 -82t-78 -198h541q-8 133 -77 207t-191 73zM1808 469h-774q2 -139 72 -226t205 -87q92 0 164 47t88 133h233
q-43 -176 -170 -270t-311 -95q-279 0 -379 195q-100 -195 -377 -195q-235 0 -361 160q-126 159 -126 399t135 399t371 158q270 0 370 -178q113 178 371 178q371 0 464 -381q25 -108 25 -237z" />
    <glyph glyph-name="Scaron" unicode="&#x160;" horiz-adv-x="1327" 
d="M999 1901l-221 -293h-227l-219 293h188l144 -183l145 183h190zM324 487q0 -161 102 -237t264 -76t238 65t76 156q0 135 -121 180q-90 33 -228 67q-137 34 -209 54q-324 88 -323 371q0 139 80 239q152 190 454 191q240 0 401 -124t161 -343h-256q-16 258 -316 258
q-106 0 -187 -45t-81 -145q0 -141 174 -189q2 0 182 -47t240 -65q137 -41 211 -147t74 -244t-88 -246q-159 -196 -494 -195q-266 0 -436 131t-174 391h256z" />
    <glyph glyph-name="scaron" unicode="&#x161;" horiz-adv-x="1062" 
d="M866 1497l-221 -293h-227l-219 293h188l143 -182l146 182h190zM88 784q0 82 41 144q70 106 250 144q74 15 151 15q178 1 300 -79t143 -246h-244q-27 141 -215 141q-102 0 -147 -33q-45 -32 -45 -66q1 -58 29 -80q51 -37 98 -49q91 -24 185 -43q278 -53 346 -187
q28 -54 28 -130q0 -119 -75 -199q-135 -144 -398 -145q-209 1 -338 95t-131 274h233q16 -184 250 -184t225 139q-4 55 -34 77q-50 35 -105 51t-164 38q-109 23 -166 44t-109 55q-108 71 -108 224z" />
    <glyph glyph-name="Ydieresis" unicode="&#x178;" horiz-adv-x="1327" 
d="M606 1630h-233v221h233v-221zM725 1851h233v-221h-233v221zM537 0v573l-549 889h297l387 -655l381 655h286l-546 -889v-573h-256z" />
    <glyph glyph-name="Zcaron" unicode="&#x17d;" horiz-adv-x="1290" 
d="M981 1901l-221 -293h-228l-219 293h189l143 -183l146 183h190zM113 1241v221h1112v-194l-852 -1047h872v-221h-1198v209l852 1032h-786z" />
    <glyph glyph-name="zcaron" unicode="&#x17e;" horiz-adv-x="1024" 
d="M848 1497l-221 -293h-228l-219 293h189l143 -182l145 182h191zM86 874v185h860v-164l-606 -711h637v-184h-932v164l586 710h-545z" />
    <glyph glyph-name="florin" unicode="&#x192;" 
d="M883 1497q68 0 149 -10l-35 -184q-47 10 -107 10t-96 -33q-34 -33 -51 -117l-51 -266h209l-31 -174h-208l-150 -780q-23 -121 -122 -206t-228 -85q-70 0 -162 10l31 184q55 -10 106 -10t86 25t47 90l154 772h-186l30 174h189l65 344q63 256 361 256z" />
    <glyph glyph-name="circumflex" unicode="&#x2c6;" horiz-adv-x="493" 
d="M246 1389l-144 -185h-188l219 293h227l222 -293h-191z" />
    <glyph glyph-name="caron" unicode="&#x2c7;" horiz-adv-x="493" 
d="M582 1497l-222 -293h-227l-219 293h188l144 -182l145 182h191z" />
    <glyph glyph-name="breve" unicode="&#x2d8;" horiz-adv-x="493" 
d="M254 1341q80 0 135 40t72 116h117q-14 -141 -104 -215t-234 -74q-143 0 -228 74q-84 74 -96 215h119q31 -156 219 -156z" />
    <glyph glyph-name="dotaccent" unicode="&#x2d9;" horiz-adv-x="493" 
d="M365 1227h-234v221h234v-221z" />
    <glyph glyph-name="ring" unicode="&#x2da;" horiz-adv-x="493" 
d="M123 1336q0 -50 38 -88t88 -38t87 38t37 88t-37 87t-87 37t-88 -37t-38 -87zM249 1124q-85 0 -149 64t-63 148q0 86 63 148q62 62 148 62t148 -62t62 -148t-62 -148q-62 -64 -147 -64z" />
    <glyph glyph-name="ogonek" unicode="&#x2db;" horiz-adv-x="493" 
d="M250 -246q0 -48 24 -74q24 -24 56 -24q59 0 108 68l82 -17q-43 -154 -215 -153q-54 0 -105 21q-102 42 -102 167t234 264h110q-192 -147 -192 -252z" />
    <glyph glyph-name="tilde" unicode="&#x2dc;" horiz-adv-x="493" 
d="M88 1303q-34 0 -60 -27t-26 -57h-117q15 91 71 161t137 70t176 -39t122 -39q78 0 103 90h114q-16 -111 -67 -166q-57 -70 -160 -69q-53 0 -152 39q-106 37 -141 37z" />
    <glyph glyph-name="hungarumlaut" unicode="&#x2dd;" horiz-adv-x="493" 
d="M336 1204l184 293h279l-295 -293h-168zM-72 1204l185 293h278l-295 -293h-168z" />
    <glyph glyph-name="endash" unicode="&#x2013;" horiz-adv-x="1024" 
d="M0 446v222h1024v-222h-1024z" />
    <glyph glyph-name="emdash" unicode="&#x2014;" horiz-adv-x="2048" 
d="M266 446v222h1516v-222h-1516z" />
    <glyph glyph-name="quoteleft" unicode="&#x2018;" horiz-adv-x="569" 
d="M289 1161h125v-276h-256v276q0 111 71 190q72 78 185 111v-119q-125 -43 -125 -182z" />
    <glyph glyph-name="quoteright" unicode="&#x2019;" horiz-adv-x="569" 
d="M283 1186h-125v276h256v-276q0 -119 -70 -203t-186 -98v119q125 16 125 182z" />
    <glyph glyph-name="quotesinglbase" unicode="&#x201a;" horiz-adv-x="569" 
d="M283 0h-125v276h256v-276q0 -112 -72 -190t-184 -111v119q125 43 125 182z" />
    <glyph glyph-name="quotedblleft" unicode="&#x201c;" horiz-adv-x="909" 
d="M786 1161v-276h-256v276q0 111 72 189t184 112v-119q-125 -43 -124 -182h124zM254 1161h125v-276h-256v276q-1 111 71 189t185 112v-119q-125 -43 -125 -182z" />
    <glyph glyph-name="quotedblright" unicode="&#x201d;" horiz-adv-x="909" 
d="M655 1186h-125v276h256v-276q0 -111 -71 -190q-72 -78 -185 -111v119q125 43 125 182zM248 1186h-125v276h256v-276q1 -112 -71 -190t-185 -111v119q125 43 125 182z" />
    <glyph glyph-name="quotedblbase" unicode="&#x201e;" horiz-adv-x="909" 
d="M655 0h-125v276h256v-276q0 -112 -72 -190t-184 -111v119q125 43 125 182zM248 0h-125v276h256v-276q1 -112 -71 -190t-185 -111v119q125 43 125 182z" />
    <glyph glyph-name="dagger" unicode="&#x2020;" 
d="M453 -328v1192h-392v195h392v403h233v-403h391v-195h-391v-1192h-233z" />
    <glyph glyph-name="daggerdbl" unicode="&#x2021;" 
d="M453 -328v404h-392v194h392v594h-392v195h392v403h233v-403h391v-195h-391v-594h391v-194h-391v-404h-233z" />
    <glyph glyph-name="bullet" unicode="&#x2022;" horiz-adv-x="1024" 
d="M147 731q1 152 107 258q106 107 258 107t260 -106t107 -259q0 -151 -108 -259q-107 -108 -259 -108t-258 108q-106 107 -107 259z" />
    <glyph glyph-name="ellipsis" unicode="&#x2026;" horiz-adv-x="2048" 
d="M1563 0v276h284v-276h-284zM881 0v276h284v-276h-284zM199 0v276h284v-276h-284z" />
    <glyph glyph-name="perthousand" unicode="&#x2030;" horiz-adv-x="2351" 
d="M1878 94q131 0 131 228t-131 229q-131 -1 -131 -229t131 -228zM1878 -29q-158 1 -232 103t-73 250q0 148 77 249q76 101 228 101t228 -100t77 -250q1 -148 -73 -250t-232 -103zM1180 94q131 0 131 228t-131 229q-131 -1 -131 -229t131 -228zM1180 -29q-146 -1 -226 97
t-80 250t77 254t229 102t228 -102t77 -254q0 -153 -80 -250t-225 -97zM338 -49l815 1532h150l-820 -1532h-145zM473 1339q-131 0 -131 -249q0 -207 131 -207t131 207q0 249 -131 249zM473 1462q153 0 229 -103t76 -251t-73 -249q-74 -99 -232 -99q-157 0 -231 99t-74 248
t76 252t229 103z" />
    <glyph glyph-name="guilsinglleft" unicode="&#x2039;" horiz-adv-x="530" 
d="M420 190l-318 252v230l318 252v-211l-195 -156l195 -156v-211z" />
    <glyph glyph-name="guilsinglright" unicode="&#x203a;" horiz-adv-x="530" 
d="M111 924l317 -252v-230l-317 -252v211l194 156l-194 156v211z" />
    <glyph glyph-name="fraction" unicode="&#x2044;" horiz-adv-x="342" 
d="M-338 -49l858 1532h160l-856 -1532h-162z" />
    <glyph glyph-name="fraction" unicode="&#x2215;" horiz-adv-x="342" 
d="M-338 -49l858 1532h160l-856 -1532h-162z" />
    <glyph glyph-name="Euro" unicode="&#x20ac;" 
d="M756 1257q-285 0 -332 -296h555l-59 -173h-519q-2 -18 -2 -66t2 -67h471l-59 -172h-389q47 -305 334 -305q186 0 293 98v-227q-94 -76 -324 -76q-446 0 -524 510h-160l59 172h84q-4 33 -4 65t4 68h-143l59 173h99q39 237 169 369t357 132q105 0 193 -24t131 -56v-223
q-102 98 -295 98z" />
    <glyph glyph-name="trademark" unicode="&#x2122;" horiz-adv-x="2027" 
d="M1907 1462v-844h-154v660h-4l-252 -660h-115l-252 660h-4v-660h-153v844h237l232 -598l229 598h236zM801 1462v-133h-258v-711h-164v711h-258v133h680z" />
    <glyph glyph-name="minus" unicode="&#x2212;" horiz-adv-x="1228" 
d="M1130 414h-1032v209h1032v-209z" />
    <glyph glyph-name="fi" unicode="&#xfb01;" 
d="M774 1241v221h234v-221h-234zM18 885v174h175v88q0 184 78 250q79 65 203 65t175 -14v-182q-47 12 -108 12q-115 0 -115 -111v-108h199v-174h-199v-885h-233v885h-175zM774 0v1059h234v-1059h-234z" />
    <glyph glyph-name="fl" unicode="&#xfb02;" 
d="M774 0v1462h234v-1462h-234zM18 885v174h175v88q0 184 78 250q79 65 203 65t175 -14v-182q-47 12 -108 12q-115 0 -115 -111v-108h199v-174h-199v-885h-233v885h-175z" />
    </font>
</defs>
</svg>
